<?xml version="1.0" encoding="utf-8"?>
<!-- Generator: Adobe Illustrator 25.0.0, SVG Export Plug-In . SVG Version: 6.00 Build 0)  -->
<svg version="1.1" id="Camada_1" xmlns="http://www.w3.org/2000/svg" xmlns:xlink="http://www.w3.org/1999/xlink" x="0px" y="0px"
	 viewBox="0 0 500 500" style="enable-background:new 0 0 500 500;" xml:space="preserve">
<style type="text/css">
	.st0{fill:#09002B;}
	.st1{fill:#E2E4E4;}
	.st2{fill:#006891;}
	.st3{fill:#00AA80;}
	.st4{fill:#FDBB3B;}
	.st5{fill:#EB496F;}
	.st6{fill:#FFFFFF;}
	.st7{fill:#0088BB;}
	.st8{font-family:'Montserrat-ExtraBold';}
	.st9{font-size:11.0227px;}
	.st10{fill:#EFB3A6;}
	.st11{fill:none;stroke:#D17A80;stroke-width:1.4399;stroke-miterlimit:10;}
	.st12{fill:#EDB1A4;}
	.st13{fill:#33324F;}
	.st14{fill:#D17A80;}
	.st15{fill:none;stroke:#D17A80;stroke-width:1.4839;stroke-miterlimit:10;}
	.st16{opacity:0.5;}
	.st17{fill:none;stroke:#005467;stroke-width:0.7419;stroke-miterlimit:10;}
	.st18{fill:#E8776E;}
	.st19{fill:none;stroke:#924541;stroke-width:1.3836;stroke-miterlimit:10;}
	.st20{fill:#924541;}
	.st21{fill:none;stroke:#EC9E05;stroke-width:1.1065;stroke-miterlimit:10;}
	.st22{opacity:0.5;fill:#924541;enable-background:new    ;}
	.st23{fill:#972A45;}
	.st24{fill:#DC3C5E;}
	.st25{fill:#045E92;}
	.st26{fill:#CDCDCD;}
	.st27{fill:#3F3E58;}
	.st28{fill:#00B0D1;}
	.st29{fill:none;stroke:#00B0D1;stroke-width:2;stroke-miterlimit:10;}
	.st30{enable-background:new    ;}
</style>
<g id="BACKGROUND">
	<rect x="-0.23" y="0.38" class="st0" width="499.92" height="499.92"/>
</g>
<g id="OBJECTS">
	<g>
		<g>
			<g>
				<g>
					<path class="st1" d="M243.35,81.33v93.46c0,3.98-3.22,7.2-7.2,7.2H83.78c-3.98,0-7.2-3.22-7.2-7.2V81.33
						c0-3.98,3.22-7.2,7.2-7.2h152.37C240.13,74.13,243.35,77.35,243.35,81.33z"/>
				</g>
				<g>
					<path class="st2" d="M243.35,81.33v7.45H76.58v-7.45c0-3.98,3.22-7.2,7.2-7.2h152.37C240.13,74.13,243.35,77.35,243.35,81.33z"
						/>
					<g>
						<path class="st3" d="M109.52,81.45c0,2.27-1.84,4.1-4.1,4.1c-2.27,0-4.1-1.84-4.1-4.1c0-2.27,1.84-4.1,4.1-4.1
							C107.69,77.35,109.52,79.18,109.52,81.45z"/>
						<path class="st4" d="M98.82,81.45c0,2.27-1.84,4.1-4.1,4.1c-2.27,0-4.1-1.84-4.1-4.1c0-2.27,1.84-4.1,4.1-4.1
							S98.82,79.18,98.82,81.45z"/>
						<path class="st5" d="M87.84,81.45c0,2.27-1.84,4.1-4.1,4.1c-2.27,0-4.1-1.84-4.1-4.1c0-2.27,1.84-4.1,4.1-4.1
							S87.84,79.18,87.84,81.45z"/>
					</g>
				</g>
			</g>
			<g>
				<rect x="137.69" y="110.6" class="st4" width="48.6" height="5.39"/>
				<polyline class="st6" points="229.77,110.6 192.65,110.6 192.65,115.99 229.77,115.99 				"/>
				<polyline class="st2" points="93.72,125.47 177.05,125.47 177.05,120.08 93.72,120.08 				"/>
				<polyline class="st2" points="116.39,103.23 199.72,103.23 199.72,97.84 116.39,97.84 				"/>
				<rect x="183.59" y="120.08" class="st4" width="20.25" height="5.39"/>
				<polyline class="st6" points="229.77,120.08 210.2,120.08 210.2,125.47 229.77,125.47 				"/>
				<polyline class="st6" points="229.77,97.84 205.95,97.84 205.95,103.23 229.77,103.23 				"/>
				<polyline class="st2" points="93.72,134.94 137.69,134.94 137.69,129.55 93.72,129.55 				"/>
				<rect x="144.22" y="129.55" class="st4" width="59.62" height="5.39"/>
				<polyline class="st4" points="110.7,144.42 137.69,144.42 137.69,139.03 110.7,139.03 				"/>
				<polyline class="st6" points="229.77,139.03 144.04,139.03 144.04,144.42 229.77,144.42 				"/>
				<polyline class="st2" points="93.72,153.9 131.15,153.9 131.15,148.51 93.72,148.51 				"/>
				<rect x="137.69" y="148.51" class="st4" width="66.15" height="5.39"/>
				<polyline class="st6" points="229.77,148.51 210.2,148.51 210.2,153.9 229.77,153.9 				"/>
				<polyline class="st2" points="93.72,163.38 156.4,163.38 156.4,157.99 93.72,157.99 				"/>
				<rect x="162.94" y="157.99" class="st4" width="23.35" height="5.39"/>
				<polyline class="st6" points="229.77,157.99 192.65,157.99 192.65,163.38 229.77,163.38 				"/>
				<rect x="121.14" y="167.46" class="st4" width="82.7" height="5.39"/>
				<polyline class="st6" points="229.77,167.46 210.2,167.46 210.2,172.85 229.77,172.85 				"/>
			</g>
			<text transform="matrix(1 0 0 1 93.7222 105.2907)" class="st7 st8 st9">&lt;/&gt;</text>
		</g>
	</g>
	<g>
		<g>
			<g>
				<g>
					<path class="st10" d="M82.02,272.05c0.04,0.29,0.06,0.58,0.07,0.86c0,0.01,0,0.01,0,0.02c0,0.01,0,0.01,0,0.02
						c0.19,4.06-2,7.15-9.11,5.88c-0.84-0.15-1.59-0.6-2.26-1.25l0,0c0,0-4.08-3.97-6.43-8.59c-1.43-2.81-1.08-4.15-1.14-4.33
						c-0.5-0.71-0.93-1.22-1.25-1.46c-0.59-0.43-1.29-0.56-1.29-0.56s-0.24,0.84,0.45,2.18c0.68,1.35-1.47,3.37-3.03-0.08
						c-1.3-2.87-0.88-4.72,0.6-5.34c-0.37-0.02-0.75-0.02-1.13,0.01c-5.17,0.32-4.96-3.97,0.41-3.97c0.59,0,1.2,0.03,1.82,0.07
						c-0.04-0.11-0.08-0.21-0.1-0.3c-0.33-0.06-0.67-0.11-1.01-0.14c-5.26-0.42-3.91-4.69,1.2-3.8c1.41,0.24,2.88,0.66,4.31,1.19
						c-0.55-0.4-1.1-0.76-1.65-1.06c-3.8-2.04-2.34-5.63,1.41-3.89c3.76,1.75,9.08,6.03,11.82,9.54
						C78.32,260.36,81.45,267.14,82.02,272.05z"/>
					<path class="st11" d="M65.36,253.4c3.86,3.43,4.77,5.52,4.77,5.52"/>
					<path class="st11" d="M60.1,260.81c0,0,1.45,0.26,2.9,2.07"/>
				</g>
				<g>
					<path class="st11" d="M66.34,266.88c-1.24-2.29-1.37-4.47-2.43-5.97c-1.4-2-4.75-5.06-4.24-6.23c0.99-2.27,3.22-0.89,5.65,1.14
						c2.42,2.03,6.74,4.69,8.66,3.78"/>
				</g>
			</g>
			<g>
				<path class="st12" d="M165.66,262.37L165.66,262.37c-0.74,2.16-1.64,4.51-2.77,7.05c-2.7,6.07-6.67,13.18-12.5,20.94
					c-2.26,3-4.78,6.08-7.61,9.25c-0.13,0.15-0.27,0.3-0.4,0.45c-1.3,1.44-2.67,2.89-4.11,4.36c-1.22,1.27-2.55,2.27-3.97,3.03
					L121.98,293c0,0,0.77-1.45,2.06-3.87c0.38-0.71,0.8-1.49,1.27-2.36c0.57-1.07,1.21-2.24,1.89-3.5c0.18-0.33,0.35-0.67,0.54-1.01
					c0.43-0.82,0.89-1.66,1.36-2.54c7.06-12.98,17.39-31.53,21.46-36.53c0.01-0.01,0.02-0.02,0.03-0.03
					c0.44-0.41,0.87-0.78,1.27-1.13l6.89,2.66l3.71,1.44c0.35,0.51,0.69,1.06,1.02,1.63C164.37,250.81,165.43,255.77,165.66,262.37z
					"/>
				<path class="st12" d="M141.34,300.18c-0.92,1.66-1.95,3.07-3.08,4.25c-1.22,1.27-2.55,2.27-3.97,3.03
					c-20.85,11.14-61.81-28.79-61.81-28.79l6.49-7.53l46.34,15.64l2.13,0.72L141.34,300.18z"/>
				<path class="st7" d="M247.92,337.74l-89.76,1.45l-6.27-91.52c-0.6-4.21,0.24-6.6,4.2-8.16c3.31-1.3,8.37-3.28,14.6-4.71
					c1.31-0.29,2.66-0.57,4.07-0.82c3.51-0.61,7.31-1,11.32-1l12.37-0.85c0,0,4.36,0.09,10.26,0.64c2.36,0.21,4.98,0.5,7.67,0.89
					c2.74,0.4,5.54,0.89,8.22,1.52c5.73,1.34,9.43,6.88,8.51,12.69L247.92,337.74z"/>
				<path class="st2" d="M216.39,233.66c-47.04,27.62-46.73,7.43-45.7,1.14c1.31-0.29,2.66-0.57,4.07-0.82c3.51-0.61,7.31-1,11.32-1
					l12.37-0.85c0,0,4.36,0.09,10.26,0.64C211.09,232.98,213.71,233.27,216.39,233.66z"/>
				<path class="st10" d="M208.72,232.77c-40.82,24.87-33.95,1.21-33.95,1.21c3.51-0.61,7.31-1,11.32-1l12.37-0.85
					C198.46,232.13,202.83,232.22,208.72,232.77z"/>
				<g>
					<g>
						<path class="st13" d="M156.65,198.31c0,0-7.33,0.11-6.6-5.99s7.42-6.2,7.42-6.2L156.65,198.31z"/>
						<path class="st13" d="M204.33,180.11c-1.99-1.89-4.66-2.65-7.29-2.44c-1.17-9.38-15.68-10.06-23.08-9.14
							c0.05-0.15,0.09-0.29,0.15-0.44c0.04-0.07,0.08-0.15,0.1-0.25c0.57-2.52,0.92-5.93-0.7-8.17c-1.42-1.97-4.11-2.68-6.35-2.38
							c-4.93,0.65-6.85,5.01-7.37,9.48c-2.51-2.84-8.02-3.13-10.32,0.38c-3.17,4.85,0.2,9.17,3.02,13.04
							c-2.71,0.38-7.63,2.04-6.49,5.44c1.29,3.85,8.11,2.29,10.88,1.59c0.1-0.03,0.18-0.07,0.25-0.12c0.55,0.18,1.25-0.28,0.97-0.97
							c-1.1-2.66,10.54-3.51,12.08-3.64c4.02-0.33,8.07-0.69,12.1-0.8c3.88-0.11,7.57,0.4,9.97,3.95c2.36,3.48,4.14,7.55,6.1,11.29
							c0.01,0.03,0.03,0.05,0.05,0.07c0.23,2.83-0.04,5.57-0.82,8.31c-0.21,0.73,0.66,1.12,1.18,0.82
							c6.42-3.75,8.97-9.67,8.47-17.18C207.01,185.68,206.78,182.44,204.33,180.11z"/>
					</g>
					<g>
						<g>
							<path class="st10" d="M199.95,235.26c-15.54,4.11-24.62,7.68-22.44,1.55l0.48-2.37l0.12-0.62l1.33-6.63l1.29-6.37l0.63-3.09
								l16.58-1.47l0.89,8.35l0.37,3.44L199.95,235.26z"/>
						</g>
						<path class="st14" d="M199.2,228.06c-2.08,0.82-17.24,6.73-21.2,6.38l0.12-0.62l1.33-6.63l18.64-9.47L199.2,228.06z"/>
					</g>
					<g>
						<g>
							<path class="st12" d="M156.03,198.71c0.04,0.64,0.09,1.27,0.14,1.93c0.03,0.4,0.07,0.8,0.11,1.2
								c0.27,2.59,0.67,4.94,1.17,7.06c0.61,2.61,1.4,4.89,2.3,6.87c0.73,1.6,1.54,3.01,2.43,4.26c5.66,8.04,13.93,8.91,19.41,8.4
								c6.33-0.59,15.97-3.69,19.11-16.5c0.96-3.83,1.31-8.54,0.83-14.31c-0.04-0.6-0.1-1.19-0.17-1.77
								c-0.06-0.64-0.14-1.27-0.23-1.89c-1.94-14.09-8.39-24.76-24.94-23.21C159.45,172.31,155.19,184.28,156.03,198.71z"/>
						</g>
					</g>
					<g>
						<path class="st13" d="M190.56,186.12c0,0-1.93,16.67,3.49,20.26c0,0,5.92,3.95,7.17-11.83L190.56,186.12z"/>
						<path class="st13" d="M192.49,192.62c0,0-9.69,1.88-10.51-6.19c0,0-5.79,5.79-12.08,0.23c0,0-1.28,5.12-9.16,3.99
							c0,0,1.77,6.78-4.73,7.63l-1.79-3.63l0.93-7.98l2.31-5.45l5.58-6.95l5.92-2.85l7.5-1.25h6.26l7.5,1.67l5.5,5.07l4.53,5.98
							l1.26,11.61l-1.22,1L192.49,192.62z"/>
					</g>
					<g>
						<g>
							<path class="st10" d="M194.61,202.04c0.03,1.45,0.32,2.95,0.7,4.33c0.17,0.63,0.35,1.23,0.52,1.78
								c0.01,0.01,0.01,0.02,0.01,0.02c0.03,0.09,0.05,0.17,0.08,0.25c0.04,0.14,0.1,0.27,0.18,0.37c0.1,0.17,0.24,0.3,0.38,0.39
								c1.32,1.63,3.7,2.01,5.81,1.23c0.65-0.23,1.29-0.59,1.85-1.06c1.92-1.58,3.16-3.58,3.57-5.74c0.33-1.79,0.1-3.69-0.8-5.54
								c-0.34-0.69-0.73-1.28-1.18-1.77c-0.58-0.65-1.25-1.12-1.98-1.42c-0.41-0.18-0.84-0.3-1.29-0.36
								c-1.66-0.23-3.52,0.31-5.29,1.53c-0.62,0.43-1.11,0.92-1.49,1.48C194.82,198.84,194.55,200.41,194.61,202.04z"/>
						</g>
						<path class="st15" d="M199.06,207.22c0,0-3.16-10.31,5.02-7.66"/>
						<line class="st15" x1="198.49" y1="204.06" x2="202.03" y2="202.45"/>
					</g>
					<g>
						<g>
							<g>
								<path class="st15" d="M173.99,213.52l-8.17,0.8c6.64-1.12,4.78-11.16,4.78-11.16"/>
								<g>
									<g class="st16">
										<path class="st14" d="M181.58,221.19c0.89,1.34-4.78,2.95-5.43,1.64C175.5,221.52,180.66,219.8,181.58,221.19z"/>
									</g>
									<path class="st15" d="M184.22,213.13c-1.88,4.48-7.22,6.14-12.44,5.63"/>
								</g>
							</g>
							<g>
								<g>
									<g>
										<g>
											<g>
												<path class="st13" d="M161.04,203.87c0.16,1.52,1.13,2.67,2.18,2.57s1.77-1.43,1.62-2.95
													c-0.16-1.52-1.13-2.67-2.18-2.57C161.61,201.03,160.88,202.35,161.04,203.87z"/>
											</g>
										</g>
									</g>
									<g>
										<g>
											<g>
												<path class="st13" d="M178.78,202.06c0.16,1.52,1.13,2.67,2.18,2.57s1.77-1.43,1.62-2.95
													c-0.16-1.52-1.13-2.67-2.18-2.57S178.63,200.54,178.78,202.06z"/>
											</g>
										</g>
									</g>
								</g>
								<g>
									<path class="st13" d="M177.8,198.6c5.53,0.31,8.64-1.23,3.88-1.88C176.91,196.06,174.94,198.44,177.8,198.6z"/>
									<path class="st13" d="M164.44,197.45c-4.89,2.6-8.36,2.51-4.31-0.08C164.18,194.78,166.97,196.11,164.44,197.45z"/>
								</g>
							</g>
						</g>
						<g>
							<g>
								<path class="st6" d="M185.83,199.16c-0.82-1.32-2-2.39-3.41-3.07c-0.16-0.08-0.33-0.16-0.5-0.22
									c-0.79-0.32-1.66-0.52-2.55-0.57c-0.16-0.01-0.32-0.02-0.49-0.02c-1.08,0-2.11,0.21-3.05,0.59
									c-1.62,0.66-2.99,1.82-3.9,3.29c-0.61,0.99-1.02,2.11-1.16,3.31h-4.49c-0.14-1.2-0.55-2.32-1.16-3.31
									c-0.91-1.47-2.28-2.63-3.9-3.29c-0.94-0.38-1.97-0.59-3.05-0.59s-2.11,0.21-3.05,0.59c-1.4,0.56-2.6,1.49-3.49,2.68
									c-0.14,0.19-0.29,0.39-0.41,0.61c-0.71,1.13-1.14,2.45-1.22,3.86c-0.01,0.14-0.01,0.29-0.01,0.43
									c0,0.47,0.04,0.94,0.12,1.39c0.16,0.88,0.45,1.71,0.86,2.47v0.01c0.15,0.28,0.32,0.55,0.51,0.81
									c1.11,1.57,2.75,2.74,4.65,3.23c0.57,0.15,1.17,0.23,1.79,0.25c0.08,0.01,0.16,0.01,0.24,0.01c2.79,0,5.26-1.41,6.73-3.49
									c0.55-0.77,0.96-1.62,1.2-2.54c0.06-0.24,0.12-0.49,0.16-0.75c0.06-0.37,0.09-0.74,0.09-1.12h4.38
									c0,0.38,0.03,0.76,0.09,1.12c0.04,0.26,0.09,0.51,0.16,0.75c0.24,0.92,0.65,1.77,1.19,2.54c1.47,2.08,3.93,3.49,6.73,3.49
									c0.13,0,0.26,0,0.39-0.01c1.12-0.05,2.17-0.32,3.12-0.78h0.01c1.09-0.52,2.04-1.27,2.79-2.19c0.14-0.16,0.26-0.33,0.39-0.51
									c0.67-0.96,1.15-2.09,1.36-3.29c0.08-0.46,0.12-0.92,0.12-1.39C187.05,201.88,186.6,200.41,185.83,199.16z M165.04,205.59
									c-0.29,0.94-0.78,1.81-1.41,2.54c-1.32,1.54-3.28,2.52-5.46,2.52H158c-2.11-0.05-4-1.02-5.29-2.52
									c-0.79-0.92-1.36-2.05-1.6-3.29c-0.09-0.45-0.14-0.92-0.14-1.39c0-1.61,0.52-3.09,1.42-4.29c1.31-1.77,3.42-2.92,5.78-2.92
									c2.37,0,4.47,1.15,5.78,2.92c0.89,1.2,1.42,2.69,1.42,4.29c0,0.47-0.04,0.94-0.14,1.39
									C165.18,205.1,165.11,205.35,165.04,205.59z M184.34,208.13c-1.26,1.47-3.09,2.42-5.15,2.51c-0.11,0.01-0.21,0.01-0.32,0.01
									c-2.19,0-4.15-0.97-5.46-2.52c-0.63-0.74-1.12-1.6-1.41-2.54c-0.07-0.24-0.14-0.49-0.18-0.75c-0.1-0.45-0.14-0.92-0.14-1.39
									c0-1.61,0.52-3.09,1.42-4.29c1.31-1.77,3.42-2.92,5.78-2.92c2.37,0,4.47,1.15,5.78,2.92c0.9,1.2,1.42,2.69,1.42,4.29
									c0,0.47-0.04,0.94-0.14,1.39C185.71,206.09,185.14,207.21,184.34,208.13z"/>
							</g>
						</g>
					</g>
				</g>
				<g>
					<path class="st12" d="M239.24,246.23L239.24,246.23c2.71,7.2,5.38,17.55,6,31.31c0.17,3.92,0.18,8.11-0.02,12.59
						c-0.16,3.48-0.45,7.14-0.89,10.96l-0.15-0.03L225,297.64c0,0-0.33-1.61-0.87-4.29c-0.35-1.76-0.79-3.99-1.28-6.53
						c-0.25-1.25-0.51-2.57-0.78-3.96c-3.15-16.29-7.57-40.61-6.48-43.53l10.89-3.61c0.59,0.17,1.2,0.37,1.82,0.61
						C230.9,238.12,234.88,241.28,239.24,246.23z"/>
					<path class="st12" d="M225.79,292.88l-48.9,15.03l-0.87,9.9c0,0,72.46,10.86,68.47-22.76L225.79,292.88z"/>
					<g>
						<path class="st10" d="M161.6,316.08c0,0-3.66,0.06-7.03,1.34s-3.4-2.32-0.38-3.47c0,0-1.76,0.19-3.89,1.2s-3.2-1.32-2.08-2.56
							c0,0-1.48,0.54-2.21-0.83c-0.73-1.37,0.79-2.77,1.37-3.18c0,0-2.74-2.4,3.09-4.95c5.83-2.55,13.59-3.95,23.32,0.9
							c6.7,3.34,7.11,8.59,5.54,11.31C176.47,320.81,167.59,321.61,161.6,316.08z"/>
						<path class="st11" d="M154.18,313.95c5.06-1.87,7.43-1.67,7.43-1.67"/>
						<path class="st11" d="M148.22,312.6c7.76-3.84,11.75-3.53,11.75-3.53"/>
						<path class="st11" d="M147.38,308.59c4.86-3.1,11.48-3.44,11.48-3.44"/>
					</g>
				</g>
				<path class="st7" d="M252.58,290.46l-7.35-0.33l-27.11-0.73l0.03-1.32l-6.74-50.71l5.48-2.54c0,0,4.13-0.69,9.59,0.9
					c0.59,0.17,1.2,0.37,1.82,0.61C238.62,240.18,252.28,251.82,252.58,290.46z"/>
				<path class="st7" d="M154.83,240.1c0,0-18.41,9.56-29.49,41.03l22.88,21.41l12.63-15.7L154.83,240.1z"/>
				<line class="st11" x1="219.84" y1="294.71" x2="226.49" y2="292.63"/>
				<line class="st11" x1="119.36" y1="284.77" x2="128.6" y2="287.9"/>
				<g>
					<path class="st17" d="M155.07,294.01c0,0-1.3-22.06,0-31.98"/>
					<line class="st17" x1="154.78" y1="269.39" x2="152.24" y2="264.36"/>
				</g>
				<g>
					<polyline class="st17" points="223.38,289.54 219.84,289.45 214,256.87 					"/>
					<line class="st17" x1="214.89" y1="261.84" x2="211.92" y2="258.89"/>
				</g>
			</g>
		</g>
		<g>
			<g>
				<path class="st13" d="M301.52,198.97c0,0-14.13,4.68-10.07,17.72c0,0-10.83-1.3-13.76,12.97c0,0-16.46-0.63-15.56,16.3
					c0.9,16.92,19.68,8.16,19.68,8.16s4.79,15.21,17.7,7.7c0,0,8.01,10.89,16.89,0L301.52,198.97z"/>
				<path class="st13" d="M341.15,204.29c0,0,11.83,9.03,3.73,20.04c0,0,10.66,2.3,8.77,16.75c0,0,15.77,4.78,9.39,20.49
					c-6.38,15.7-21.26,1.29-21.26,1.29s-9.49,12.81-19.25,1.5c0,0-11.13,7.68-15.97-5.51L341.15,204.29z"/>
				<path class="st13" d="M347.31,206.03c-0.15,0.89-0.34,1.79-0.56,2.73c-0.51,2.23-1.21,4.61-2.11,7.15
					c-0.02,0.05-0.03,0.1-0.06,0.16c-0.34,0.97-0.71,1.96-1.12,2.98c-0.47,1.19-1.59,2-2.85,2.05l-32.67,1.15
					c-2.51,0.09-4.04-2.8-4.9-5.2c-3.42-9.48-9.97-31.73,13.23-39.28c4.06-1.32,8.38-1.58,12.55-0.74
					C337.49,178.79,351.06,184.87,347.31,206.03z"/>
			</g>
			<g>
				<path class="st18" d="M338.87,302.49c-0.35,1.74-0.46,3.36-0.37,4.88c0.11,1.64,0.44,3.15,1,4.55
					c8.11,20.5,61.32,16.82,61.32,16.82l-0.07-9.27l-42.38-16.83l-1.95-0.77L338.87,302.49z"/>
				<g>
					<path class="st18" d="M357.2,307.65l-15.89,7.8c-0.94-1.18-1.7-2.53-2.28-4.06c-0.68-1.79-1.31-3.55-1.89-5.26
						c-0.05-0.18-0.12-0.36-0.18-0.54c-1.25-3.76-2.26-7.34-3.07-10.73c-2.11-8.81-2.86-16.36-2.92-22.55
						c-0.03-2.59,0.07-4.95,0.24-7.05l-0.01-0.01c2.64-5.56,5.39-9.41,7.27-11.7c0.49-0.36,1-0.7,1.48-1.01l0.54,0.02l3.17,0.13
						l5.2,0.21c0.64,0.77,1.29,1.64,1.96,2.61c0.33,0.49,0.66,0.99,0.99,1.53c1.49,7.75,3.14,24.51,4.22,36.63
						c0.07,0.92,0.15,1.82,0.22,2.68c0.04,0.36,0.06,0.71,0.09,1.06c0.03,0.34,0.06,0.68,0.08,1.01c0.09,0.95,0.16,1.85,0.23,2.68
						c0.07,0.91,0.15,1.74,0.21,2.49C357.08,306.12,357.2,307.65,357.2,307.65z"/>
					<line class="st19" x1="354.84" y1="301.3" x2="360.07" y2="303.31"/>
				</g>
				<g>
					<g>
						<path class="st18" d="M397.25,318.13c-0.2,0.18-0.39,0.37-0.57,0.56l-0.01,0.01l-0.01,0.01c-2.58,2.77-2.89,6.29,2.93,9.68
							c0.69,0.4,1.49,0.53,2.36,0.47l0,0c0,0,5.3-0.37,9.75-2.23c2.71-1.14,3.27-2.3,3.42-2.39c0.78-0.2,1.4-0.31,1.77-0.28
							c0.68,0.04,1.26,0.38,1.26,0.38s-0.34,0.74-1.63,1.28c-1.3,0.54-0.99,3.28,2.2,1.77c2.65-1.26,3.48-2.83,2.79-4.16
							c0.27,0.21,0.54,0.44,0.8,0.69c3.49,3.35,5.92,0.17,2.1-3.07c-0.42-0.36-0.87-0.71-1.34-1.05c0.1-0.05,0.18-0.1,0.25-0.16
							c0.28,0.16,0.54,0.33,0.8,0.51c3.99,2.87,5.61-0.98,1.44-3.43c-1.15-0.67-2.45-1.27-3.78-1.76c0.63,0.04,1.24,0.12,1.81,0.24
							c3.94,0.84,5.06-2.59,1.34-3.62s-10.09-1.18-14.16-0.35C406.94,312.05,400.62,314.98,397.25,318.13z"/>
						<path class="st19" d="M420.36,314.92c-4.81,0.11-6.72,1.05-6.72,1.05"/>
						<path class="st19" d="M419.62,323.36c0,0-1.19-0.69-3.31-0.28"/>
					</g>
					<g>
						<path class="st19" d="M411.53,323.91c2.27-0.88,3.67-2.35,5.32-2.78c2.21-0.58,6.43-0.73,6.77-1.87
							c0.67-2.21-1.76-2.57-4.7-2.59s-7.62-0.74-8.43-2.54"/>
					</g>
				</g>
			</g>
			<path class="st4" d="M352.24,252.71c0.01,0.27,0,0.56-0.04,0.84l-3.14,45.89l-2.7,39.44l-83.69-1.35l13.79-83.8
				c-0.86-5.42,2.59-10.58,7.93-11.83c2.5-0.58,5.11-1.04,7.67-1.41c0.62-0.09,1.24-0.17,1.84-0.25c1.28-0.16,2.53-0.3,3.73-0.43
				c0.54-0.05,1.07-0.1,1.59-0.15c0.37-0.03,0.74-0.07,1.1-0.1c4.93-0.43,8.47-0.5,8.47-0.5l11.54,0.8c2.29,0,4.51,0.14,6.64,0.37
				c0.16,0.01,0.32,0.03,0.47,0.05c0.1,0.01,0.2,0.02,0.3,0.03c0.28,0.04,0.56,0.08,0.83,0.11c0.79,0.11,1.56,0.23,2.32,0.36
				c0.71,0.12,1.4,0.25,2.08,0.39l0.01,0.01c0.58,0.12,1.15,0.24,1.71,0.36c1.94,0.44,3.75,0.94,5.41,1.46
				c0.8,0.25,1.32,0.4,1.67,0.49c0.01,0,0.04,0.01,0.06,0.01c0.3,0.09,0.47,0.13,0.6,0.16c0.03,0.01,0.06,0.01,0.1,0.03
				c0.14,0.04,0.25,0.08,0.51,0.19c0.03,0.01,0.08,0.03,0.11,0.05C345.01,244.76,348.53,246.93,352.24,252.71z"/>
			<g>
				<g>
					<path class="st6" d="M324.95,250.28l2.4-9.87c0.08,0.02,0.08-0.03,0.07-0.12c0.1,0.01,0.2,0.02,0.3,0.03
						c0.28,0.04,0.56,0.08,0.83,0.11c0.79,0.11,1.56,0.23,2.32,0.36c0.71,0.12,1.4,0.25,2.08,0.39l0.01,0.01
						c0.58,0.12,1.15,0.24,1.71,0.36C346.02,255.82,324.95,250.28,324.95,250.28z"/>
					<g>
						<path class="st6" d="M325.55,249.44c0,0-0.25,0.49-0.73,1.22c-2.75,4.12-13.23,15.83-30.93-10.42
							c1.28-0.16,2.53-0.3,3.73-0.43c0.54-0.05,1.07-0.1,1.59-0.15c0.37-0.03,0.74-0.07,1.1-0.1l24.6,9.62L325.55,249.44z"/>
					</g>
				</g>
				<path class="st18" d="M297.62,239.81c0.54-0.05,1.07-0.1,1.59-0.15c5.5-0.51,9.57-0.6,9.57-0.6l11.54,0.8
					c2.29,0,4.51,0.14,6.64,0.37c0.53,0.08,1.06,0.16,1.57,0.25C328.52,240.49,334.83,262.25,297.62,239.81z"/>
			</g>
			<g class="st16">
				<path class="st20" d="M321,230.14c-0.83,1.25,4.46,2.75,5.06,1.53C326.67,230.45,321.86,228.85,321,230.14z"/>
			</g>
			<g>
				<path class="st4" d="M363.77,291.49c0,0-3.27,2.11-7.15,4.27c-2.49,1.39-5.25,2.8-7.56,3.69c-1.99,0.76-3.66,1.14-4.54,0.78
					L342,249.47l-0.3-5.97c0,0,0.01,0,0.04,0.01c0.01,0,0.04,0.01,0.06,0.01c0.12,0.02,0.32,0.07,0.6,0.16
					c0.03,0.01,0.06,0.01,0.1,0.03c0.15,0.05,0.32,0.12,0.51,0.19c0.03,0.01,0.08,0.03,0.11,0.05c1.56,0.67,4.25,2.27,7.23,6.09
					c0.62,0.79,1.24,1.67,1.88,2.66c0.32,0.49,0.63,1.01,0.95,1.56C357.25,261.24,361.41,272.69,363.77,291.49z"/>
			</g>
			<g>
				<path class="st21" d="M345.44,265.38c0,0,6.41,18.44,3.61,34.07"/>
				<line class="st21" x1="346.76" y1="269.85" x2="348.35" y2="266.49"/>
			</g>
			<g>
				<path class="st18" d="M277.26,245.92c0.05-0.04,0.1-0.08,0.14-0.11c0.34-0.25,0.67-0.48,0.97-0.69c0.58-0.21,1.15-0.4,1.7-0.56
					l10.16,3.36c1.01,2.72-3.11,25.39-6.05,40.59c-0.25,1.29-0.49,2.53-0.73,3.69c-0.42,2.12-0.79,4-1.1,5.55
					c-0.03,0.19-0.07,0.36-0.1,0.54c-0.5,2.5-0.81,4-0.81,4l-17.89,3.19l-0.14,0.03c-0.26-2.31-0.47-4.55-0.62-6.73
					c-0.08-1.19-0.15-2.35-0.21-3.49c-0.19-4.17-0.18-8.08-0.02-11.74c0.51-11.45,2.55-20.38,4.79-26.93L277.26,245.92z"/>
				<path class="st18" d="M281.25,297.93l43.45,19.68l-0.36,9.26c0,0-68.31,1.48-60.63-29.15L281.25,297.93z"/>
				<g>
					<path class="st18" d="M337.87,326.98c0,0,3.38,0.49,6.34,2.07c2.97,1.58,3.42-1.74,0.77-3.17c0,0,1.61,0.38,3.46,1.57
						s3.12-0.84,2.22-2.12c0,0,1.3,0.68,2.14-0.51c0.84-1.18-0.4-2.66-0.9-3.1c0,0,2.81-1.89-2.27-4.94
						c-5.09-3.05-12.1-5.26-21.68-1.92c-6.59,2.3-7.59,7.1-6.46,9.81C323.56,329.6,331.68,331.39,337.87,326.98z"/>
					<path class="st19" d="M344.98,325.89c-4.46-2.32-6.68-2.42-6.68-2.42"/>
					<path class="st19" d="M350.66,325.34c-6.73-4.47-10.45-4.66-10.45-4.66"/>
					<path class="st19" d="M351.91,321.73c-4.13-3.44-10.21-4.54-10.21-4.54"/>
				</g>
				<line class="st19" x1="284.38" y1="299.35" x2="279.16" y2="296.97"/>
			</g>
			<path class="st4" d="M283.74,242.08c0,0-24.31,6.64-29.99,53.39c0,0,21.78,2.09,32.52-1.4l7.63-46.98L283.74,242.08z"/>
			<g>
				<polyline class="st21" points="282.92,294.92 286.26,294.07 288.17,266.66 				"/>
				<line class="st21" x1="287.78" y1="272.3" x2="290.72" y2="269.09"/>
			</g>
			<g>
				<g>
					<g>
						<path class="st18" d="M303.87,242.83c14.49,3.83,22.96,7.16,20.92,1.45l-0.45-2.21l-0.11-0.57l-1.24-6.18l-1.2-5.94
							l-0.59-2.88l-15.46-1.37l-0.83,7.79l-0.34,3.21L303.87,242.83z"/>
					</g>
					<path class="st22" d="M304.58,236.12c1.94,0.76,16.07,6.27,19.77,5.95l-0.11-0.57l-1.24-6.18l-17.38-8.83L304.58,236.12z"/>
				</g>
				<g>
					<g>
						<path class="st18" d="M344.82,208.75c-0.04,0.6-0.08,1.18-0.13,1.8c-0.03,0.37-0.07,0.75-0.11,1.12
							c-0.25,2.41-0.63,4.61-1.09,6.58c-0.57,2.44-1.31,4.56-2.14,6.41c-0.68,1.49-1.44,2.81-2.26,3.97
							c-5.27,7.5-12.99,8.31-18.1,7.83c-5.9-0.55-14.89-3.44-17.82-15.38c-0.89-3.57-1.23-7.97-0.77-13.35
							c0.04-0.56,0.09-1.11,0.16-1.65c0.05-0.6,0.13-1.19,0.21-1.76c1.81-13.13,7.82-23.08,23.26-21.65
							C341.64,184.14,345.6,195.3,344.82,208.75z"/>
					</g>
				</g>
				<path class="st19" d="M328.08,222.56l7.62,0.74c-6.19-1.04-4.46-10.41-4.46-10.41"/>
				<g>
					<g>
						<g>
							<g>
								<path class="st13" d="M340.15,213.57c-0.14,1.42-1.05,2.49-2.03,2.39s-1.65-1.33-1.51-2.75c0.14-1.42,1.05-2.49,2.03-2.39
									C339.62,210.92,340.3,212.15,340.15,213.57z"/>
							</g>
						</g>
					</g>
					<g>
						<g>
							<g>
								<path class="st13" d="M323.61,211.88c-0.14,1.42-1.05,2.49-2.03,2.39s-1.65-1.33-1.51-2.75c0.15-1.42,1.05-2.49,2.03-2.39
									C323.08,209.23,323.75,210.46,323.61,211.88z"/>
							</g>
						</g>
					</g>
				</g>
				<g>
					<g>
						<g>
							<g>
								<path class="st13" d="M336.78,205.44c-1.25,1.69,4.69,3.74,5.66,2.09C343.41,205.86,338.07,203.69,336.78,205.44z"/>
							</g>
						</g>
					</g>
					<g>
						<g>
							<g>
								<path class="st13" d="M323.64,203.33c0.9,1.9-5.32,2.77-5.96,0.96C317.05,202.47,322.72,201.36,323.64,203.33z"/>
							</g>
						</g>
					</g>
				</g>
				<g>
					<path class="st23" d="M321.13,223.7c0.03,1.04,0.35,2.05,0.89,2.9c0.77,1.21,1.98,2.13,3.48,2.5c1.36,0.33,2.73,0.15,3.89-0.41
						c1.03-0.5,1.91-1.32,2.49-2.35L321.13,223.7z"/>
					<path class="st24" d="M322.02,226.6c0.77,1.21,1.98,2.13,3.48,2.5c1.36,0.33,2.73,0.15,3.89-0.41
						c-0.41-1.22-1.68-2.31-3.37-2.73C324.48,225.58,322.98,225.86,322.02,226.6z"/>
				</g>
				<path class="st13" d="M347.31,206.03c-0.15,0.89-0.34,1.79-0.56,2.73c-0.51,2.23-1.21,4.61-2.11,7.15
					c-0.02,0.05-0.03,0.1-0.06,0.16c-2.81-4.53-0.76-15.23-0.76-15.23c-8.61-0.86-14.2-7.64-14.2-7.64
					c-6.11,2.94-15.33,1.94-15.33,1.94c-1.79,9.2-5.74,13.67-7.75,15.42c-0.48,0.42-1.22,0.07-1.22-0.56l-0.02-3.02l-3.78-2.11
					l2.07-8.23l2.49-7.75l10.99-7.02l17.01,0.96l5.79,5.21l6.44,7.66L347.31,206.03z"/>
				<g>
					<g>
						<path class="st18" d="M307.84,207.68c-0.35-0.52-0.81-0.98-1.39-1.38c-1.66-1.14-3.38-1.64-4.93-1.43
							c-0.41,0.06-0.82,0.16-1.2,0.33c-0.67,0.28-1.3,0.71-1.84,1.32c-0.41,0.45-0.78,1.01-1.1,1.65c-0.84,1.72-1.06,3.49-0.75,5.16
							c0.38,2.01,1.54,3.88,3.33,5.35c0.53,0.44,1.12,0.77,1.73,0.99c1.97,0.73,4.19,0.37,5.42-1.14c0.14-0.09,0.27-0.21,0.36-0.37
							c0.07-0.1,0.13-0.22,0.17-0.35c0.02-0.08,0.05-0.15,0.07-0.24c0,0,0-0.01,0.01-0.02c0.16-0.52,0.33-1.08,0.49-1.66
							c0.35-1.29,0.62-2.69,0.65-4.04C308.91,210.34,308.65,208.88,307.84,207.68z"/>
					</g>
					<path class="st19" d="M304.7,216.69c0,0,2.95-9.61-4.68-7.15"/>
					<line class="st19" x1="305.23" y1="213.74" x2="301.94" y2="212.25"/>
				</g>
				<g>
					<path class="st6" d="M315.06,191.47l-2.17,0.54c-0.25,0.06-0.38,0.32-0.3,0.56l1.91,5.34c0.07,0.19,0.27,0.31,0.47,0.28
						l0.63-0.1c0.22-0.03,0.37-0.23,0.36-0.45l-0.36-5.78C315.58,191.6,315.32,191.41,315.06,191.47z"/>
					<path class="st6" d="M346.48,198.16l-1.94-1.11c-0.22-0.13-0.5-0.03-0.6,0.2l-2.31,5.18c-0.08,0.19-0.02,0.41,0.15,0.52
						l0.52,0.36c0.18,0.13,0.43,0.09,0.57-0.08l3.73-4.43C346.76,198.6,346.71,198.29,346.48,198.16z"/>
				</g>
			</g>
			<path class="st21" d="M349.05,299.45"/>
			<g>
				<g>
					<path class="st21" d="M349.05,299.45"/>
					<path class="st21" d="M345.44,265.38"/>
					<path class="st21" d="M346.76,269.85"/>
				</g>
			</g>
			<g>
				<g>
					<path class="st6" d="M325.7,250.8c-0.06-0.37-0.39-0.5-0.68-0.44c-0.21-0.15-0.52-0.17-0.73,0.08
						c-2.57,3.08-4.6,6.89-5.02,10.94c-0.25,2.41,0.21,5.82,2.79,6.88c2.35,0.96,4.12-1.48,4.76-3.47
						C328.18,260.51,326.35,255.07,325.7,250.8z M321.29,266.23c-1.8-1.92-0.93-5.7-0.22-7.9c0.79-2.45,2.07-4.65,3.66-6.66
						c0.4,2.56,0.83,5.12,1.16,7.69c0.16,1.21,0.32,2.47,0.17,3.69C325.86,264.72,324.29,269.43,321.29,266.23z"/>
					<path class="st6" d="M329.58,264.27c1.32,1.6,3.88,3.22,5.7,1.45c2-1.94,1.17-5.28,0.04-7.43c-1.9-3.6-5.2-6.38-8.73-8.29
						c-0.3-0.16-0.57-0.02-0.71,0.19c-0.29,0.05-0.55,0.3-0.47,0.66C326.4,255.06,326.73,260.8,329.58,264.27z M329.64,262.37
						c-0.6-1.08-0.91-2.31-1.21-3.49c-0.65-2.51-1.2-5.05-1.78-7.57c2.22,1.27,4.23,2.84,5.87,4.82c1.47,1.78,3.69,4.96,2.73,7.41
						C333.66,267.62,330.44,263.84,329.64,262.37z"/>
				</g>
				<path class="st6" d="M327.92,258c-0.05-0.7-1.14-0.71-1.1,0c0.6,9.3,0.44,18.6-0.47,27.87c-0.07,0.7,1.03,0.7,1.1,0
					C328.36,276.6,328.52,267.29,327.92,258z"/>
				<path class="st6" d="M326.6,259.04c-0.2-0.67,0.83-1.05,1.03-0.37c2.6,8.95,5.92,17.64,9.93,26.05c0.3,0.64-0.73,1.01-1.03,0.37
					C332.52,276.68,329.2,267.98,326.6,259.04z"/>
			</g>
		</g>
	</g>
	<g>
		<rect x="245.69" y="319.79" class="st6" width="3.73" height="7.99"/>
		<rect x="245.69" y="334.09" class="st6" width="3.73" height="7.99"/>
		<rect x="251.27" y="328.94" class="st6" width="7.99" height="3.73"/>
		<rect x="236.15" y="328.95" class="st6" width="7.99" height="3.73"/>
	</g>
	<g>
		<ellipse class="st25" cx="241.75" cy="358.95" rx="226.3" ry="24.32"/>
		<g>
			<g>
				<path class="st1" d="M45.99,353.1v1.83c0,2.31,1.81,4.22,4.12,4.34l93.23,4.99c2.51,0.13,5.01-0.26,7.36-1.16l32.97-12.61
					c1.68-0.64,2.79-2.26,2.79-4.06v-4.85L45.99,353.1z"/>
				<g>
					<polygon class="st26" points="147.13,356.54 186.45,341.58 74.12,338.22 45.99,353.1 					"/>
					<g>
						<polygon class="st27" points="167.02,346.9 161.46,348.98 160.54,349.32 154.97,351.4 154.06,351.74 154.05,351.74 
							146.75,354.47 145.29,351.47 145.17,351.23 145.11,351.1 145,350.89 142.68,346.12 156.65,346.56 156.66,346.56 157.67,346.6 
							157.67,346.6 						"/>
						<g>
							<g>
								<polygon class="st26" points="161.46,348.98 160.54,349.32 151.1,349.03 150.08,349 145.23,348.85 145.25,348.49 
									151,348.66 152.02,348.69 								"/>
							</g>
							<g>
								<polygon class="st26" points="154.97,351.4 154.06,351.74 154.05,351.74 145.29,351.47 145.17,351.23 144.99,351.3 
									144.92,351.09 145.11,351.1 145.49,351.11 								"/>
							</g>
							<g>
								<polygon class="st26" points="157.67,346.6 152.03,348.69 152.02,348.69 151.11,349.03 151.1,349.03 145.49,351.11 
									145.17,351.23 144.99,351.3 144.92,351.09 144.86,350.94 145,350.89 150.08,349 151,348.66 156.65,346.56 156.66,346.56 
																	"/>
							</g>
						</g>
					</g>
				</g>
			</g>
			<g>
				<path class="st1" d="M147.12,357.08l-101.15-3.44l-8.59-61.27c-0.92-6.58,3.59-11.73,10.08-11.51l77.65,2.64
					c6.49,0.22,12.5,5.73,13.42,12.31L147.12,357.08z"/>
				<circle class="st4" cx="88.46" cy="326.24" r="7.28"/>
			</g>
		</g>
		<g>
			<g>
				<g>
					<g>
						<polygon class="st28" points="463.36,338.01 344.55,338.01 354.36,258.1 473.17,258.1 						"/>
						<polygon class="st7" points="468.35,338.01 349.54,338.01 359.35,258.1 478.16,258.1 						"/>
					</g>
					<g>
						<polygon class="st7" points="394.63,356.71 419.03,350.15 421.62,357.52 						"/>
						<path class="st28" d="M402.1,306.38h19.28l12.45,41.27c1.96,6.51-2.91,13.06-9.7,13.06h-7.03L402.1,306.38z"/>
						<path class="st2" d="M405.53,306.38h19.28l13.35,44.23c1.52,5.03-2.25,10.11-7.51,10.11h-10.12L405.53,306.38z"/>
						<rect x="394.63" y="356.69" class="st2" width="26.99" height="4.03"/>
					</g>
				</g>
				<ellipse class="st28" cx="413.87" cy="289.39" rx="8.36" ry="8.36"/>
			</g>
			<g>
				<g>
					<g>
						<rect x="305.03" y="342.87" class="st28" width="11.09" height="4.41"/>
						<rect x="320.17" y="342.87" class="st28" width="11.09" height="4.41"/>
						<rect x="335.32" y="342.87" class="st28" width="11.09" height="4.41"/>
						<rect x="350.46" y="342.87" class="st28" width="11.09" height="4.41"/>
						<rect x="365.61" y="342.87" class="st28" width="11.09" height="4.41"/>
						<rect x="380.75" y="342.87" class="st28" width="11.09" height="4.41"/>
						<rect x="395.89" y="342.87" class="st28" width="11.09" height="4.41"/>
					</g>
					<rect x="302.62" y="345.73" class="st2" width="106.57" height="6.06"/>
				</g>
				<g>
					<path class="st7" d="M296.36,351.74h-38.37c-0.95,0-1.58-0.96-1.21-1.83c2.58-6.18,13.13-24.54,40.47-0.47
						C298.15,350.24,297.57,351.74,296.36,351.74z"/>
					<line class="st29" x1="297.24" y1="349.44" x2="283.73" y2="340.09"/>
				</g>
			</g>
		</g>
	</g>
	<g>
		<g>
			<g>
				<rect x="274.41" y="70.3" class="st6" width="3.73" height="7.99"/>
				<rect x="274.41" y="84.61" class="st6" width="3.73" height="7.99"/>
				<rect x="279.98" y="79.46" class="st6" width="7.99" height="3.73"/>
				<rect x="264.85" y="79.46" class="st6" width="7.99" height="3.73"/>
			</g>
			<g>
				<rect x="133.38" y="57.17" class="st6" width="3.73" height="7.99"/>
				<rect x="133.38" y="71.47" class="st6" width="3.73" height="7.99"/>
				<rect x="138.95" y="66.33" class="st6" width="7.99" height="3.73"/>
				<rect x="123.83" y="66.33" class="st6" width="7.99" height="3.73"/>
			</g>
			<g>
				<rect x="383.93" y="194.83" class="st6" width="3.73" height="7.99"/>
				<rect x="383.93" y="209.14" class="st6" width="3.73" height="7.99"/>
				<rect x="389.51" y="203.99" class="st6" width="7.99" height="3.73"/>
				<rect x="374.38" y="203.99" class="st6" width="7.99" height="3.73"/>
			</g>
			<g>
				<rect x="276.17" y="421.98" class="st6" width="3.73" height="7.99"/>
				<rect x="276.17" y="436.29" class="st6" width="3.73" height="7.99"/>
				<rect x="281.75" y="431.14" class="st6" width="7.99" height="3.73"/>
				<rect x="266.62" y="431.14" class="st6" width="7.99" height="3.73"/>
			</g>
			<g>
				<rect x="460.69" y="353.31" class="st6" width="3.73" height="7.99"/>
				<rect x="460.69" y="367.61" class="st6" width="3.73" height="7.99"/>
				<rect x="466.26" y="362.47" class="st6" width="7.99" height="3.73"/>
				<rect x="451.14" y="362.47" class="st6" width="7.99" height="3.73"/>
			</g>
			<g>
				<rect x="65.04" y="385.61" class="st6" width="3.73" height="7.99"/>
				<rect x="65.04" y="399.91" class="st6" width="3.73" height="7.99"/>
				<rect x="70.62" y="394.77" class="st6" width="7.99" height="3.73"/>
				<rect x="55.49" y="394.77" class="st6" width="7.99" height="3.73"/>
			</g>
			<g>
				<rect x="119.97" y="226.99" class="st6" width="3.73" height="7.99"/>
				<rect x="119.97" y="241.29" class="st6" width="3.73" height="7.99"/>
				<rect x="125.54" y="236.15" class="st6" width="7.99" height="3.73"/>
				<rect x="110.42" y="236.15" class="st6" width="7.99" height="3.73"/>
			</g>
		</g>
		<g>
			<g>
				<g>
					<g>
						<g>
							<path class="st1" d="M441.03,375.03v57.75c0,2.46-1.99,4.45-4.45,4.45h-94.15c-2.46,0-4.45-1.99-4.45-4.45v-57.75
								c0-2.46,1.99-4.45,4.45-4.45h94.15C439.04,370.58,441.03,372.58,441.03,375.03z"/>
						</g>
						<g>
							<path class="st2" d="M441.03,375.03v4.6H337.99v-4.6c0-2.46,1.99-4.45,4.45-4.45h94.15
								C439.04,370.58,441.03,372.58,441.03,375.03z"/>
							<g>
								<path class="st3" d="M358.34,375.11c0,1.4-1.14,2.54-2.54,2.54s-2.54-1.14-2.54-2.54s1.14-2.54,2.54-2.54
									C357.21,372.57,358.34,373.71,358.34,375.11z"/>
								<path class="st4" d="M351.73,375.11c0,1.4-1.14,2.54-2.54,2.54s-2.54-1.14-2.54-2.54s1.14-2.54,2.54-2.54
									S351.73,373.71,351.73,375.11z"/>
								<path class="st5" d="M344.95,375.11c0,1.4-1.14,2.54-2.54,2.54s-2.54-1.14-2.54-2.54s1.14-2.54,2.54-2.54
									S344.95,373.71,344.95,375.11z"/>
							</g>
						</g>
					</g>
					<g class="st30">
						<path class="st7" d="M359.95,418.87c-2.16-1.15-3.86-2.75-5.1-4.8c-1.24-2.05-1.86-4.38-1.86-6.97s0.62-4.92,1.86-6.97
							c1.24-2.05,2.94-3.65,5.1-4.8c2.16-1.15,4.61-1.72,7.33-1.72c2.38,0,4.51,0.42,6.42,1.26c1.9,0.84,3.49,2.05,4.75,3.64
							l-4.67,4.23c-1.68-2.03-3.72-3.04-6.12-3.04c-1.41,0-2.66,0.31-3.76,0.93s-1.95,1.49-2.56,2.62s-0.91,2.42-0.91,3.88
							c0,1.46,0.3,2.75,0.91,3.88s1.46,2,2.56,2.62s2.36,0.93,3.76,0.93c2.4,0,4.44-1.01,6.12-3.04l4.67,4.23
							c-1.26,1.58-2.84,2.79-4.75,3.63c-1.9,0.84-4.04,1.26-6.42,1.26C364.55,420.6,362.11,420.02,359.95,418.87z"/>
						<path class="st7" d="M399.25,409.8h-6.27v6.12h-5.71v-6.12h-6.31v-5.42h6.31v-6.12h5.71v6.12h6.27V409.8z"/>
						<path class="st7" d="M422.13,409.8h-6.27v6.12h-5.71v-6.12h-6.31v-5.42h6.31v-6.12h5.71v6.12h6.27V409.8z"/>
					</g>
				</g>
				<g>
					<g>
						<g>
							<path class="st7" d="M407.58,60.8v44.78c0,1.9-1.54,3.45-3.45,3.45h-73c-1.9,0-3.45-1.54-3.45-3.45V60.8
								c0-1.91,1.54-3.45,3.45-3.45h73C406.04,57.36,407.58,58.9,407.58,60.8z"/>
						</g>
						<g>
							<path class="st2" d="M407.58,60.8v3.57h-79.9V60.8c0-1.91,1.54-3.45,3.45-3.45h73C406.04,57.36,407.58,58.9,407.58,60.8z"/>
							<g>
								<path class="st3" d="M343.47,60.86c0,1.09-0.88,1.97-1.97,1.97s-1.97-0.88-1.97-1.97s0.88-1.97,1.97-1.97
									C342.59,58.9,343.47,59.78,343.47,60.86z"/>
								<path class="st4" d="M338.34,60.86c0,1.09-0.88,1.97-1.97,1.97s-1.97-0.88-1.97-1.97s0.88-1.97,1.97-1.97
									C337.46,58.9,338.34,59.78,338.34,60.86z"/>
								<path class="st5" d="M333.08,60.86c0,1.09-0.88,1.97-1.97,1.97s-1.97-0.88-1.97-1.97s0.88-1.97,1.97-1.97
									C332.2,58.9,333.08,59.78,333.08,60.86z"/>
							</g>
						</g>
					</g>
					<g>
						<path class="st6" d="M350.6,77.47v15.49h-4.38v-6.04h-5.97v6.04h-4.38V77.47h4.38v5.82h5.97v-5.82H350.6z"/>
						<path class="st6" d="M357,80.94h-4.76v-3.47h13.87v3.47h-4.74v12.02H357V80.94z"/>
						<path class="st6" d="M381.74,92.96l-0.04-8.21l-3.98,6.68h-1.95l-3.96-6.46v7.99h-4.05V77.47h3.61l5.44,8.94l5.31-8.94h3.61
							l0.04,15.49H381.74z"/>
						<path class="st6" d="M388.86,77.47h4.38v12.02h7.39v3.47h-11.77V77.47z"/>
					</g>
				</g>
			</g>
			<g>
				<g>
					<path class="st4" d="M99.72,231.66H53.44c-3.67,0-6.65-2.98-6.65-6.65v-46.29c0-3.67,2.98-6.65,6.65-6.65h46.29
						c3.67,0,6.65,2.98,6.65,6.65v46.29C106.37,228.69,103.39,231.66,99.72,231.66z"/>
					<g>
						<path class="st6" d="M69.05,199.6l-8.29,2.85l8.29,2.85v4.65l-13.96-5.06v-4.87l13.96-5.06V199.6z"/>
						<path class="st6" d="M78.49,188.98h5.47l-9.03,25.78h-5.47L78.49,188.98z"/>
						<path class="st6" d="M98.06,200.01v4.87l-13.96,5.06v-4.65l8.29-2.85l-8.29-2.85v-4.65L98.06,200.01z"/>
					</g>
				</g>
				<g>
					<g>
						<path class="st7" d="M452.47,200.73H414.2c-3.04,0-5.5-2.46-5.5-5.5v-38.27c0-3.04,2.46-5.5,5.5-5.5h38.27
							c3.04,0,5.5,2.46,5.5,5.5v38.27C457.97,198.27,455.51,200.73,452.47,200.73z"/>
					</g>
					<g>
						<path class="st6" d="M438.15,190.95c0.02,2.64-2.1,4.8-4.74,4.82c-2.64,0.02-4.8-2.1-4.82-4.74c-0.02-2.64,2.1-4.8,4.74-4.82
							C435.97,186.19,438.13,188.31,438.15,190.95z"/>
						<path class="st6" d="M447.06,168.36c-8.12-6.12-19.41-6.02-27.43,0.24c-1.26,0.97-3.02,1.15-4.06,0.18l0,0
							c-1.04-0.97-0.71-2.99,0.89-4.24c9.84-7.69,23.72-7.82,33.69-0.3c1.62,1.22,1.98,3.24,0.96,4.22l0,0
							C450.1,169.46,448.33,169.31,447.06,168.36z"/>
						<path class="st6" d="M442.5,175.97c-5.49-3.7-12.75-3.64-18.18,0.16c-1.29,0.89-3.04,1.07-4.09,0.11l0,0
							c-1.05-0.95-0.64-3.09,1.14-4.33c7.16-5.02,16.75-5.1,24.01-0.21c1.8,1.22,2.25,3.34,1.22,4.31l0,0
							C445.56,176.99,443.8,176.83,442.5,175.97z"/>
						<path class="st6" d="M437.56,183.65c-2.67-1.34-5.85-1.31-8.5,0.07c-1.35,0.67-3.11,0.88-4.18-0.07l0,0
							c-1.08-0.92-0.46-3.33,1.8-4.5c4.11-2.15,9.04-2.19,13.19-0.12c2.28,1.14,2.94,3.53,1.88,4.47l0,0
							C440.69,184.47,438.92,184.3,437.56,183.65z"/>
					</g>
				</g>
				<g>
					<g>
						<g>
							<path class="st7" d="M177.62,443.89H136.2c-3.29,0-5.95-2.66-5.95-5.95v-41.42c0-3.29,2.66-5.95,5.95-5.95h41.42
								c3.29,0,5.95,2.66,5.95,5.95v41.42C183.57,441.23,180.91,443.89,177.62,443.89z"/>
						</g>
					</g>
					<g class="st30">
						<path class="st6" d="M139.54,424.6c-1.21-0.64-2.17-1.54-2.86-2.69c-0.69-1.15-1.04-2.46-1.04-3.91s0.35-2.76,1.04-3.91
							c0.69-1.15,1.65-2.05,2.86-2.69c1.21-0.65,2.58-0.97,4.11-0.97c1.33,0,2.53,0.24,3.6,0.71c1.07,0.47,1.96,1.15,2.66,2.04
							l-2.62,2.37c-0.94-1.14-2.09-1.71-3.43-1.71c-0.79,0-1.5,0.17-2.11,0.52c-0.62,0.35-1.1,0.84-1.44,1.47
							c-0.34,0.63-0.51,1.36-0.51,2.17s0.17,1.54,0.51,2.17s0.82,1.12,1.44,1.47c0.62,0.35,1.32,0.52,2.11,0.52
							c1.35,0,2.49-0.57,3.43-1.71l2.62,2.37c-0.71,0.89-1.6,1.57-2.66,2.04s-2.27,0.71-3.6,0.71
							C142.13,425.57,140.76,425.24,139.54,424.6z"/>
						<path class="st6" d="M153.27,425.13c-1.11-0.29-2.01-0.68-2.71-1.17l1.35-3.04c0.65,0.43,1.41,0.78,2.27,1.04
							s1.71,0.4,2.54,0.4c1.58,0,2.37-0.4,2.37-1.19c0-0.42-0.23-0.72-0.68-0.93c-0.45-0.2-1.18-0.41-2.17-0.63
							c-1.1-0.24-2.01-0.49-2.75-0.76s-1.37-0.7-1.89-1.3c-0.53-0.6-0.79-1.4-0.79-2.41c0-0.89,0.24-1.69,0.73-2.4
							c0.49-0.71,1.21-1.28,2.17-1.7s2.15-0.62,3.55-0.62c0.96,0,1.9,0.11,2.83,0.32c0.93,0.21,1.75,0.53,2.46,0.95l-1.27,3.06
							c-1.39-0.75-2.73-1.12-4.04-1.12c-0.82,0-1.42,0.12-1.79,0.36c-0.37,0.24-0.56,0.56-0.56,0.95s0.22,0.68,0.67,0.87
							c0.44,0.19,1.16,0.4,2.14,0.6c1.11,0.24,2.03,0.49,2.76,0.76c0.73,0.27,1.36,0.7,1.89,1.29c0.53,0.59,0.8,1.39,0.8,2.4
							c0,0.87-0.24,1.66-0.73,2.37c-0.49,0.71-1.21,1.27-2.19,1.7c-0.97,0.42-2.15,0.63-3.54,0.63
							C155.52,425.57,154.38,425.42,153.27,425.13z"/>
						<path class="st6" d="M166.73,425.13c-1.11-0.29-2.01-0.68-2.71-1.17l1.35-3.04c0.65,0.43,1.41,0.78,2.27,1.04
							s1.71,0.4,2.54,0.4c1.58,0,2.37-0.4,2.37-1.19c0-0.42-0.23-0.72-0.68-0.93c-0.45-0.2-1.18-0.41-2.17-0.63
							c-1.1-0.24-2.01-0.49-2.75-0.76s-1.37-0.7-1.89-1.3c-0.53-0.6-0.79-1.4-0.79-2.41c0-0.89,0.24-1.69,0.73-2.4
							c0.49-0.71,1.21-1.28,2.17-1.7s2.15-0.62,3.55-0.62c0.96,0,1.9,0.11,2.83,0.32c0.93,0.21,1.75,0.53,2.46,0.95l-1.27,3.06
							c-1.39-0.75-2.73-1.12-4.04-1.12c-0.82,0-1.42,0.12-1.79,0.36c-0.37,0.24-0.56,0.56-0.56,0.95s0.22,0.68,0.67,0.87
							c0.44,0.19,1.16,0.4,2.14,0.6c1.11,0.24,2.03,0.49,2.76,0.76c0.73,0.27,1.36,0.7,1.89,1.29c0.53,0.59,0.8,1.39,0.8,2.4
							c0,0.87-0.24,1.66-0.73,2.37c-0.49,0.71-1.21,1.27-2.19,1.7c-0.97,0.42-2.15,0.63-3.54,0.63
							C168.99,425.57,167.84,425.42,166.73,425.13z"/>
					</g>
				</g>
			</g>
			<g>
				<g>
					<g>
						<g>
							<path class="st1" d="M281.09,169.41h79.65c4.64,0,8.4-3.76,8.4-8.4v-18.24c0-4.64-3.76-8.4-8.4-8.4h-79.65
								c-4.64,0-8.4,3.76-8.4,8.4v18.24C272.69,165.65,276.45,169.41,281.09,169.41z"/>
							<polygon class="st1" points="272.69,161.08 272.69,182.99 283.7,168.47 							"/>
						</g>
					</g>
					<g>
						<path class="st7" d="M293.11,144.21c0.93,0.42,1.64,1.01,2.15,1.79s0.76,1.69,0.76,2.74c0,1.05-0.25,1.96-0.76,2.73
							s-1.22,1.36-2.15,1.78c-0.93,0.42-2.02,0.63-3.29,0.63h-2.43v3.64h-3.94v-13.93h6.37
							C291.08,143.58,292.18,143.79,293.11,144.21z M291.42,150.24c0.41-0.35,0.62-0.85,0.62-1.5c0-0.65-0.21-1.15-0.62-1.51
							s-1.02-0.54-1.83-0.54h-2.19v4.08h2.19C290.39,150.77,291,150.59,291.42,150.24z"/>
						<path class="st7" d="M309.27,146.73l-4.66,11.23c-0.54,1.33-1.21,2.26-1.99,2.8c-0.78,0.54-1.74,0.81-2.87,0.81
							c-0.57,0-1.14-0.09-1.72-0.27c-0.58-0.18-1.04-0.42-1.4-0.71l1.31-2.65c0.21,0.2,0.47,0.36,0.77,0.47s0.6,0.17,0.91,0.17
							c0.36,0,0.65-0.07,0.88-0.22c0.23-0.15,0.43-0.38,0.59-0.7l-4.62-10.93h3.88l2.65,6.59l2.67-6.59H309.27z"/>
						<path class="st7" d="M317.99,157.08c-0.32,0.2-0.71,0.35-1.17,0.46c-0.46,0.11-0.95,0.16-1.46,0.16
							c-1.41,0-2.49-0.34-3.24-1.04c-0.76-0.69-1.13-1.72-1.13-3.08v-3.62h-1.57v-2.83h1.57v-2.81h3.78v2.81h2.47v2.83h-2.47v3.58
							c0,0.38,0.1,0.69,0.31,0.91c0.21,0.22,0.48,0.33,0.83,0.33c0.44,0,0.82-0.11,1.16-0.34L317.99,157.08z"/>
						<path class="st7" d="M329.71,147.74c0.82,0.8,1.22,2,1.22,3.6v6.17h-3.78v-5.55c0-1.47-0.59-2.21-1.77-2.21
							c-0.65,0-1.17,0.21-1.56,0.64s-0.59,1.06-0.59,1.91v5.22h-3.78v-14.77h3.78v4.98c0.41-0.38,0.9-0.68,1.45-0.88
							c0.56-0.2,1.15-0.3,1.79-0.3C327.81,146.55,328.89,146.95,329.71,147.74z"/>
						<path class="st7" d="M335.75,156.98c-0.93-0.48-1.66-1.14-2.18-1.99c-0.53-0.85-0.79-1.81-0.79-2.89
							c0-1.06,0.26-2.02,0.79-2.87c0.52-0.85,1.25-1.51,2.17-1.98c0.92-0.47,1.97-0.71,3.13-0.71s2.22,0.24,3.15,0.71
							c0.93,0.47,1.65,1.13,2.17,1.97s0.78,1.8,0.78,2.88s-0.26,2.04-0.78,2.89c-0.52,0.85-1.24,1.51-2.17,1.99
							c-0.93,0.48-1.98,0.72-3.15,0.72C337.72,157.69,336.68,157.46,335.75,156.98z M340.51,154c0.42-0.46,0.64-1.09,0.64-1.9
							c0-0.8-0.21-1.42-0.64-1.87c-0.43-0.45-0.97-0.68-1.63-0.68s-1.21,0.23-1.63,0.68c-0.42,0.45-0.64,1.08-0.64,1.87
							c0,0.81,0.21,1.44,0.64,1.9c0.43,0.46,0.97,0.69,1.63,0.69S340.08,154.46,340.51,154z"/>
						<path class="st7" d="M356.98,147.74c0.82,0.8,1.22,2,1.22,3.6v6.17h-3.78v-5.55c0-1.47-0.59-2.21-1.77-2.21
							c-0.65,0-1.17,0.21-1.56,0.64c-0.39,0.42-0.59,1.06-0.59,1.91v5.22h-3.78v-10.79h3.6v1.17c0.42-0.44,0.93-0.77,1.51-1
							s1.22-0.35,1.91-0.35C355.08,146.55,356.16,146.95,356.98,147.74z"/>
					</g>
				</g>
				<g>
					<g>
						<g>
							<path class="st7" d="M287.74,394H208.1c-4.64,0-8.4-3.76-8.4-8.4v-18.24c0-4.64,3.76-8.4,8.4-8.4h79.65
								c4.64,0,8.4,3.76,8.4,8.4v18.24C296.14,390.24,292.38,394,287.74,394z"/>
							<polygon class="st7" points="296.14,385.67 296.14,407.58 285.14,393.06 							"/>
						</g>
					</g>
					<g>
						<path class="st6" d="M220.03,372.89l-6.35,2.25l6.35,2.25v2.91l-9.81-3.62v-3.07l9.81-3.62V372.89z"/>
						<path class="st6" d="M224.71,381.57c-0.94-0.48-1.68-1.14-2.2-1.99c-0.52-0.85-0.79-1.81-0.79-2.89s0.26-2.03,0.79-2.88
							s1.26-1.5,2.2-1.97c0.94-0.47,2.01-0.71,3.21-0.71c1.22,0,2.28,0.26,3.17,0.79c0.89,0.52,1.52,1.25,1.89,2.18l-2.93,1.49
							c-0.49-0.97-1.21-1.45-2.15-1.45c-0.68,0-1.24,0.23-1.68,0.68s-0.67,1.08-0.67,1.87c0,0.81,0.22,1.44,0.67,1.9
							s1.01,0.69,1.68,0.69c0.94,0,1.66-0.48,2.15-1.45l2.93,1.49c-0.37,0.93-1,1.66-1.89,2.18c-0.89,0.52-1.94,0.79-3.17,0.79
							C226.72,382.29,225.65,382.05,224.71,381.57z"/>
						<path class="st6" d="M236.57,381.57c-0.93-0.48-1.66-1.14-2.18-1.99c-0.52-0.85-0.79-1.81-0.79-2.89
							c0-1.06,0.26-2.02,0.79-2.87s1.25-1.51,2.17-1.98c0.92-0.47,1.97-0.71,3.14-0.71s2.22,0.24,3.15,0.71
							c0.93,0.47,1.65,1.13,2.17,1.97s0.78,1.8,0.78,2.88s-0.26,2.04-0.78,2.89c-0.52,0.85-1.24,1.51-2.17,1.99
							c-0.93,0.48-1.98,0.72-3.15,0.72C238.54,382.29,237.5,382.05,236.57,381.57z M241.33,378.6c0.42-0.46,0.64-1.09,0.64-1.9
							c0-0.8-0.21-1.42-0.64-1.87c-0.43-0.45-0.97-0.68-1.63-0.68s-1.21,0.23-1.63,0.68s-0.64,1.08-0.64,1.87
							c0,0.81,0.21,1.44,0.64,1.9s0.97,0.69,1.63,0.69S240.91,379.05,241.33,378.6z"/>
						<path class="st6" d="M259.01,367.34v14.77h-3.6v-1.08c-0.7,0.84-1.76,1.25-3.17,1.25c-0.98,0-1.88-0.23-2.69-0.69
							c-0.81-0.46-1.45-1.11-1.92-1.96c-0.47-0.85-0.71-1.83-0.71-2.95c0-1.11,0.24-2.09,0.71-2.94s1.11-1.49,1.92-1.94
							c0.81-0.45,1.71-0.68,2.69-0.68c1.29,0,2.28,0.37,2.99,1.11v-4.92H259.01z M254.65,378.6c0.42-0.46,0.64-1.09,0.64-1.9
							c0-0.8-0.21-1.42-0.63-1.87s-0.96-0.68-1.62-0.68s-1.21,0.23-1.63,0.68c-0.43,0.45-0.64,1.08-0.64,1.87
							c0,0.81,0.21,1.44,0.64,1.9c0.42,0.46,0.97,0.69,1.63,0.69C253.69,379.28,254.22,379.05,254.65,378.6z"/>
						<path class="st6" d="M272.41,377.67h-7.84c0.16,0.56,0.47,0.99,0.93,1.28c0.46,0.3,1.03,0.45,1.72,0.45
							c0.52,0,0.96-0.07,1.34-0.22c0.38-0.15,0.76-0.38,1.14-0.72l1.99,2.07c-1.05,1.17-2.58,1.75-4.6,1.75
							c-1.26,0-2.37-0.24-3.33-0.72c-0.96-0.48-1.7-1.14-2.22-1.99c-0.52-0.85-0.79-1.81-0.79-2.89c0-1.06,0.25-2.01,0.77-2.86
							c0.51-0.84,1.22-1.5,2.12-1.98c0.9-0.48,1.92-0.72,3.05-0.72c1.07,0,2.05,0.22,2.93,0.67c0.88,0.44,1.57,1.09,2.08,1.93
							c0.51,0.84,0.77,1.84,0.77,3C272.47,376.76,272.45,377.07,272.41,377.67z M265.25,374.33c-0.39,0.33-0.64,0.78-0.75,1.35h4.42
							c-0.11-0.57-0.35-1.02-0.75-1.35c-0.39-0.33-0.88-0.5-1.46-0.5S265.64,373.99,265.25,374.33z"/>
						<path class="st6" d="M283.97,373.61v3.07l-9.81,3.62v-2.91l6.35-2.25l-6.35-2.25v-2.91L283.97,373.61z"/>
					</g>
				</g>
			</g>
		</g>
	</g>
</g>
</svg>
