<?xml version="1.0" encoding="utf-8"?>
<!-- Generator: Adobe Illustrator 25.0.0, SVG Export Plug-In . SVG Version: 6.00 Build 0)  -->
<svg version="1.1" id="Camada_1" xmlns="http://www.w3.org/2000/svg" xmlns:xlink="http://www.w3.org/1999/xlink" x="0px" y="0px"
	 viewBox="0 0 381.26 381.71" style="enable-background:new 0 0 381.26 381.71;" xml:space="preserve">
<style type="text/css">
	.st0{fill:#0000FF;}
</style>
<path d="M328.22,36.86H53.04c-9.05,0-16.41,7.36-16.41,16.41v275.18c0,9.05,7.36,16.41,16.41,16.41h275.18
	c9.05,0,16.41-7.36,16.41-16.41V53.27C344.63,44.22,337.27,36.86,328.22,36.86z M337.21,320.41c0,9.41-7.62,17.03-17.03,17.03H61.08
	c-9.41,0-17.03-7.62-17.03-17.03V61.31c0-9.41,7.62-17.03,17.03-17.03h259.1c9.41,0,17.03,7.62,17.03,17.03V320.41z"/>
<path class="st0" d="M337.21,61.31v259.1c0,9.41-7.62,17.03-17.03,17.03H61.08c-9.41,0-17.03-7.62-17.03-17.03V61.31
	c0-9.41,7.62-17.03,17.03-17.03h259.1C329.59,44.28,337.21,51.9,337.21,61.31z"/>
<rect x="175.63" y="197.86" width="99" height="11"/>
<rect x="175.63" y="91.86" width="8" height="117"/>
</svg>
